<svg preserveAspectRatio="none" width="100%" height="100%" overflow="visible" style="display: block;" viewBox="0 0 42.0015 42.0563" fill="none" xmlns="http://www.w3.org/2000/svg">
<g id="Frame 1789">
<path id="Vector" d="M27.5546 13.1428C22.8515 13.1376 18.4431 15.4325 15.7421 19.2905C13.0386 23.1461 12.3806 28.0849 13.9807 32.5179C15.5808 36.951 19.2342 40.3239 23.7732 41.5534C28.3124 42.7855 33.1639 41.7203 36.7739 38.7016L39.736 41.6715C40.2506 42.1695 41.0673 42.1618 41.5742 41.6561C42.0786 41.1479 42.0863 40.329 41.5896 39.8131L38.6275 36.8432C40.9803 34.017 42.1682 30.3951 41.948 26.7194C41.7253 23.0436 40.1124 19.5909 37.437 17.0675C34.7616 14.5441 31.2283 13.1402 27.5546 13.1428ZM35.9005 35.9524L35.8929 35.9575L35.8877 35.9652H35.8852C32.8795 39.0019 28.4889 40.198 24.3644 39.1097C20.2399 38.0187 17.0087 34.805 15.8873 30.6801C14.7686 26.5525 15.9257 22.14 18.9288 19.1034C21.9294 16.0668 26.3199 14.8655 30.4444 15.9512C34.5689 17.0396 37.8046 20.2483 38.9286 24.373C40.0525 28.498 38.8985 32.9105 35.9005 35.9524Z" fill="var(--fill-0, black)"/>
<path id="Vector_2" d="M7.89242 42.0563H16.6736C17.3981 42.0563 17.9844 41.4684 17.9844 40.742C17.9844 40.0156 17.3981 39.4278 16.6736 39.4278H7.89242C6.50223 39.4278 5.16841 38.8733 4.1853 37.8876C3.20218 36.9018 2.64915 35.5645 2.64915 34.1707V7.88556C2.64915 6.49172 3.20215 5.1544 4.1853 4.16871C5.16844 3.18301 6.5023 2.62853 7.89242 2.62853H22.9668V5.25704C22.972 7.43122 24.7308 9.19469 26.8993 9.19982H29.5209V10.8298C29.5209 11.5563 30.1072 12.1441 30.8317 12.1441C31.5563 12.1441 32.1426 11.5563 32.1426 10.8298V7.88556C32.14 7.53646 32.0043 7.20274 31.7637 6.95119L25.2096 0.379899C24.9587 0.138608 24.6258 0.0025628 24.2776 0H7.89241C3.55032 0.00256675 0.0301221 3.53207 0.0275004 7.88555V34.1707C0.0300604 38.5242 3.55034 42.0536 7.89242 42.0563Z" fill="var(--fill-0, black)"/>
</g>
</svg>
