<svg preserveAspectRatio="none" width="100%" height="100%" overflow="visible" style="display: block;" viewBox="0 0 39.181 35.5143" fill="none" xmlns="http://www.w3.org/2000/svg">
<path id="Icon" d="M19.5905 8.59048C19.5905 6.64556 18.8179 4.7803 17.4426 3.40503C16.0673 2.02976 14.2021 1.25714 12.2572 1.25714H1.25714V28.7572H14.0905C15.5492 28.7572 16.9481 29.3366 17.9796 30.3681C19.011 31.3995 19.5905 32.7985 19.5905 34.2572M19.5905 8.59048V34.2572M19.5905 8.59048C19.5905 6.64556 20.3631 4.7803 21.7384 3.40503C23.1136 2.02976 24.9789 1.25714 26.9238 1.25714H37.9238V28.7572H25.0905C23.6318 28.7572 22.2329 29.3366 21.2014 30.3681C20.17 31.3995 19.5905 32.7985 19.5905 34.2572" stroke="var(--stroke-0, #1E1E1E)" stroke-width="2.51429" stroke-linecap="round" stroke-linejoin="round"/>
</svg>
