<svg preserveAspectRatio="none" width="100%" height="100%" overflow="visible" style="display: block;" viewBox="0 0 44.0291 44.0291" fill="none" xmlns="http://www.w3.org/2000/svg">
<path id="Icon" d="M19.7991 5.43098H5.17757C4.06961 5.43098 3.00703 5.87112 2.22358 6.65457C1.44014 7.43801 1 8.50059 1 9.60856V38.8516C1 39.9595 1.44014 41.0221 2.22358 41.8055C3.00703 42.589 4.06961 43.0291 5.17757 43.0291H34.4206C35.5285 43.0291 36.5911 42.589 37.3746 41.8055C38.158 41.0221 38.5981 39.9595 38.5981 38.8516V24.2301M35.465 2.29781C36.2959 1.46683 37.423 1 38.5981 1C39.7733 1 40.9004 1.46683 41.7313 2.29781C42.5623 3.12878 43.0291 4.25581 43.0291 5.43098C43.0291 6.60615 42.5623 7.73319 41.7313 8.56416L21.8879 28.4076L13.5327 30.4964L15.6215 22.1413L35.465 2.29781Z" stroke="var(--stroke-0, #1E1E1E)" stroke-width="2" stroke-linecap="round" stroke-linejoin="round"/>
</svg>
