<svg preserveAspectRatio="none" width="100%" height="100%" overflow="visible" style="display: block;" viewBox="0 0 47.0876 45.0668" fill="none" xmlns="http://www.w3.org/2000/svg">
<g id="Frame 1690">
<path id="Vector" d="M17.148 29.0371H19.151V19.4239C19.151 19.2125 19.2169 19.0167 19.3294 18.8577L22.7013 12.8372C22.9688 12.3602 23.5738 12.1896 24.0508 12.4572C24.2156 12.5502 24.3436 12.6821 24.4308 12.8372L27.8182 18.883C27.919 19.0381 27.9791 19.2243 27.9791 19.424V29.0372H29.9452C30.5851 27.9262 31.3025 26.8326 32.0276 25.7293C34.1682 22.4661 36.3767 19.1037 36.3767 15.507C36.3767 11.759 34.9341 8.3677 32.6054 5.91909C30.2864 3.48379 27.0852 1.97526 23.5506 1.97526C20.0158 1.97526 16.8128 3.48379 14.4957 5.91909C12.1651 8.368 10.7244 11.7574 10.7244 15.507C10.7244 19.1038 12.931 22.4677 15.0716 25.7293C15.7967 26.8326 16.5141 27.9262 17.154 29.0372L17.148 29.0371ZM6.14842 23.4375C6.62152 23.1641 7.22843 23.3251 7.50183 23.7982C7.77523 24.2713 7.61429 24.8782 7.14119 25.1516L4.28704 26.7997C3.81394 27.0731 3.20704 26.9121 2.93363 26.439C2.66024 25.9659 2.82117 25.359 3.29428 25.0856L6.14842 23.4375ZM7.1373 5.86097C7.6104 6.13242 7.77325 6.73736 7.50182 7.21051C7.23039 7.68365 6.62543 7.84646 6.15228 7.57503L3.29814 5.92692C2.82504 5.65547 2.66219 5.05053 2.93361 4.57739C3.20504 4.10424 3.81001 3.94143 4.28315 4.21286L7.1373 5.86097ZM4.28896 14.5147C4.8377 14.5147 5.2817 14.9588 5.2817 15.5075C5.2817 16.0562 4.83768 16.5002 4.28896 16.5002H0.992746C0.444006 16.5002 0 16.0562 0 15.5075C0 14.9588 0.444021 14.5147 0.992746 14.5147H4.28896ZM39.9484 25.154C39.4753 24.8806 39.3144 24.2737 39.5877 23.8006C39.8611 23.3275 40.468 23.1666 40.9411 23.4399L43.7953 25.088C44.2684 25.3614 44.4293 25.9683 44.1559 26.4414C43.8826 26.9146 43.2757 27.0755 42.8025 26.8021L39.9484 25.154ZM40.9373 7.57742C40.4642 7.84888 39.8592 7.68601 39.5877 7.2129C39.3163 6.73979 39.4791 6.13483 39.9522 5.86336L42.8064 4.21526C43.2795 3.9438 43.8845 4.10668 44.1559 4.57978C44.4274 5.05289 44.2645 5.65786 43.7914 5.92932L40.9373 7.57742ZM42.7987 16.5022C42.2499 16.5022 41.8059 16.0582 41.8059 15.5095C41.8059 14.9607 42.2499 14.5167 42.7987 14.5167H46.0949C46.6436 14.5167 47.0876 14.9607 47.0876 15.5095C47.0876 16.0582 46.6436 16.5022 46.0949 16.5022H42.7987ZM31.9698 29.5027C32.2509 29.6617 32.5049 29.8575 32.7318 30.0844C33.3794 30.732 33.7789 31.6201 33.7789 32.5973C33.7789 33.5745 33.3775 34.4626 32.7338 35.1082C32.346 35.496 31.8709 35.7946 31.3435 35.973V37.7278C31.3435 38.7031 30.9421 39.5931 30.2984 40.2368C29.7516 40.7836 29.0323 41.154 28.2354 41.2567C28.0434 42.1874 27.5819 43.0212 26.9343 43.6688C26.0715 44.5316 24.8752 45.0668 23.5586 45.0668C22.244 45.0668 21.0496 44.5316 20.1867 43.6688C19.5372 43.0212 19.0738 42.1894 18.8818 41.2567C18.0849 41.154 17.3656 40.7855 16.8227 40.2407C16.1751 39.5931 15.7756 38.705 15.7756 37.7278V35.975C15.2463 35.7986 14.7713 35.5 14.3854 35.1141L14.3292 35.054C13.7184 34.4141 13.3403 33.5494 13.3403 32.6032C13.3403 31.6259 13.7416 30.7379 14.3854 30.0922C14.6045 29.8712 14.8527 29.6792 15.1241 29.5222C14.589 28.6322 13.9976 27.7306 13.4004 26.8231C11.0989 23.3156 8.72748 19.7012 8.72748 15.5153C8.72748 11.2437 10.3814 7.3698 13.0513 4.5643C15.7348 1.74505 19.4441 0 23.5432 0C27.6402 0 31.3511 1.74505 34.035 4.5643C36.7049 7.36995 38.3589 11.244 38.3589 15.5153C38.3589 19.7034 35.9856 23.3178 33.684 26.8231C33.0907 27.7267 32.5032 28.6244 31.97 29.5086L31.9698 29.5027ZM22.568 29.0393V20.4208H21.1332V29.0393H22.568ZM24.5535 20.4208V29.0393H25.9864V20.4208H24.5535ZM21.8331 18.4353H25.2844L23.5587 15.3543L21.8331 18.4353ZM27.0043 31.0268H16.8987C16.4663 31.0268 16.0746 31.2032 15.7896 31.4882C15.5045 31.7713 15.3281 32.165 15.3281 32.5973C15.3281 33.0123 15.489 33.3904 15.7508 33.6715L15.7896 33.7084C16.0649 33.9837 16.443 34.1582 16.8579 34.1699H30.262C30.6788 34.1602 31.057 33.9837 31.3322 33.7103C31.6153 33.4253 31.7918 33.0317 31.7918 32.5993C31.7918 32.165 31.6153 31.7713 31.3322 31.4863C31.0336 31.1897 30.6342 31.0268 30.2212 31.0268L27.0043 31.0268ZM25.5307 42.2632C25.806 41.9878 26.0232 41.6563 26.1647 41.284H20.9528C21.0943 41.6543 21.3115 41.9878 21.5868 42.2632C22.089 42.7673 22.787 43.0795 23.5587 43.0795C24.3285 43.0795 25.0265 42.7673 25.5307 42.2632ZM29.3562 36.1553H17.7615V37.7259C17.7615 38.1583 17.9379 38.5519 18.221 38.8369C18.506 39.12 18.8996 39.2964 19.332 39.2964H27.7857C28.2181 39.2964 28.6118 39.12 28.8968 38.8369C29.1799 38.5519 29.3563 38.1583 29.3563 37.7259L29.3562 36.1553Z" fill="var(--fill-0, black)"/>
</g>
</svg>
