<svg preserveAspectRatio="none" width="100%" height="100%" overflow="visible" style="display: block;" viewBox="0 0 47.9575 39.593" fill="none" xmlns="http://www.w3.org/2000/svg">
<path id="Icon" d="M15.6326 28.1491L23.9878 19.7939L32.3429 28.1491M23.9878 19.7939V38.593M41.5127 33.1413C43.55 32.0306 45.1594 30.2731 46.0869 28.1462C47.0144 26.0193 47.2072 23.6441 46.6348 21.3954C46.0625 19.1467 44.7576 17.1527 42.9261 15.728C41.0946 14.3033 38.8409 13.5291 36.5205 13.5276H33.8886C33.2564 11.0821 32.078 8.8118 30.442 6.88732C28.8061 4.96283 26.7551 3.43426 24.4433 2.41651C22.1316 1.39876 19.6192 0.918331 17.095 1.01133C14.5709 1.10433 12.1006 1.76834 9.87005 2.95345C7.63945 4.13855 5.70654 5.81391 4.21663 7.85357C2.72672 9.89322 1.71859 12.2441 1.26801 14.7295C0.817442 17.2148 0.93616 19.77 1.61524 22.2029C2.29432 24.6357 3.5161 26.883 5.18871 28.7757" stroke="var(--stroke-0, #1E1E1E)" stroke-width="2" stroke-linecap="round" stroke-linejoin="round"/>
</svg>
