<svg preserveAspectRatio="none" width="100%" height="100%" overflow="visible" style="display: block;" viewBox="0 0 38.4008 38.2595" fill="none" xmlns="http://www.w3.org/2000/svg">
<path id="Vector" d="M19.2 0C8.59622 0 0 8.59622 0 19.2C0 28.204 6.1993 35.7596 14.562 37.8348V25.0675H10.603V19.2H14.562V16.6717C14.562 10.1368 17.5196 7.10784 23.9355 7.10784C25.152 7.10784 27.2509 7.34669 28.1096 7.58477V12.9032C27.6565 12.8556 26.8692 12.8317 25.8916 12.8317C22.7436 12.8317 21.527 14.0244 21.527 17.1249V19.2H27.7985L26.721 25.0675H21.527V38.2595C31.0341 37.1113 38.4008 29.0166 38.4008 19.2C38.4 8.59622 29.8038 0 19.2 0Z" fill="var(--fill-0, white)"/>
</svg>
