<svg preserveAspectRatio="none" width="100%" height="100%" overflow="visible" style="display: block;" viewBox="0 0 42.1254 42.1255" fill="none" xmlns="http://www.w3.org/2000/svg">
<g id="Group 13">
<circle id="Ellipse 3" cx="21.0627" cy="21.0627" r="21.0627" fill="var(--fill-0, #F0EFEB)"/>
<path id="Vector" d="M25.2459 10.9899H16.5757C12.9904 10.9899 10.0736 13.9067 10.0736 17.492V26.1612C10.0736 29.7464 12.9904 32.6633 16.5757 32.6633H25.2449C28.8301 32.6633 31.747 29.7464 31.747 26.1612L31.748 17.492C31.748 13.9067 28.8312 10.9899 25.2459 10.9899ZM29.58 26.1622C29.58 28.5527 27.6354 30.4973 25.2449 30.4973L16.5757 30.4963C14.1852 30.4963 12.2406 28.5517 12.2406 26.1612L12.2416 17.492C12.2416 15.1015 14.1862 13.1569 16.5767 13.1569H25.2459C27.6364 13.1569 29.581 15.1015 29.581 17.492L29.58 26.1622ZM20.9108 16.409C17.9229 16.409 15.4927 18.8402 15.4927 21.8271C15.4927 24.815 17.9239 27.2452 20.9108 27.2452C23.8987 27.2452 26.3289 24.814 26.3289 21.8271C26.3289 18.8392 23.8987 16.409 20.9108 16.409ZM20.9108 25.0782C19.1176 25.0782 17.6597 23.6203 17.6597 21.8271C17.6597 20.0339 19.1176 18.576 20.9108 18.576C22.704 18.576 24.1619 20.0339 24.1619 21.8271C24.1619 23.6203 22.704 25.0782 20.9108 25.0782ZM27.099 15.6389C27.293 15.8451 27.4129 16.1266 27.4129 16.409C27.4129 16.6904 27.293 16.9728 27.099 17.1781C26.8928 17.3731 26.6103 17.492 26.3289 17.492C26.0465 17.492 25.7651 17.3721 25.5598 17.1781C25.3648 16.9718 25.2459 16.6904 25.2459 16.409C25.2459 16.1266 25.3648 15.8451 25.5598 15.6399C25.9713 15.2386 26.6865 15.2386 27.099 15.6389Z" fill="var(--fill-0, #528ED6)"/>
</g>
</svg>
