<svg viewBox="0 0 38.3775 38.3925" fill="none" xmlns="http://www.w3.org/2000/svg">
  <!-- Outer rounded rectangle -->
  <path d="M19.2 3.4575C24.33 3.4575 24.9375 3.48 26.955 3.57C28.83 3.6525 29.8425 3.9675 30.5175 4.23C31.41 4.575 32.055 4.995 32.7225 5.6625C33.3975 6.3375 33.81 6.975 34.155 7.8675C34.4175 8.5425 34.7325 9.5625 34.815 11.43C34.905 13.455 34.9275 14.0625 34.9275 19.185C34.9275 24.315 34.905 24.9225 34.815 26.94C34.7325 28.815 34.4175 29.8275 34.155 30.5025C33.81 31.395 33.39 32.04 32.7225 32.7075C32.0475 33.3825 31.41 33.795 30.5175 34.14C29.8425 34.4025 28.8225 34.7175 26.955 34.8C24.93 34.89 24.3225 34.9125 19.2 34.9125C14.07 34.9125 13.4625 34.89 11.445 34.8C9.57 34.7175 8.5575 34.4025 7.8825 34.14C6.99 33.795 6.345 33.375 5.6775 32.7075C5.0025 32.0325 4.59 31.395 4.245 30.5025C3.9825 29.8275 3.6675 28.8075 3.585 26.94C3.495 24.915 3.4725 24.3075 3.4725 19.185C3.4725 14.055 3.495 13.4475 3.585 11.43C3.6675 9.555 3.9825 8.5425 4.245 7.8675C4.59 6.975 5.01 6.33 5.6775 5.6625C6.3525 4.9875 6.99 4.575 7.8825 4.23C8.5575 3.9675 9.5775 3.6525 11.445 3.57C13.4625 3.48 14.07 3.4575 19.2 3.4575ZM19.2 0C13.9875 0 13.335 0.0225 11.2875 0.1125C9.2475 0.2025 7.845 0.5325 6.63 1.005C5.3625 1.5 4.29 2.1525 3.225 3.225C2.1525 4.29 1.5 5.3625 1.005 6.6225C0.5325 7.845 0.2025 9.24 0.1125 11.28C0.0225 13.335 0 13.9875 0 19.2C0 24.4125 0.0225 25.065 0.1125 27.1125C0.2025 29.1525 0.5325 30.555 1.005 31.77C1.5 33.0375 2.1525 34.11 3.225 35.175C4.29 36.24 5.3625 36.9 6.6225 37.3875C7.845 37.86 9.24 38.19 11.28 38.28C13.3275 38.37 13.98 38.3925 19.1925 38.3925C24.405 38.3925 25.0575 38.37 27.105 38.28C29.145 38.19 30.5475 37.86 31.7625 37.3875C33.0225 36.9 34.095 36.24 35.16 35.175C36.225 34.11 36.885 33.0375 37.3725 31.7775C37.845 30.555 38.175 29.16 38.265 27.12C38.355 25.0725 38.3775 24.42 38.3775 19.2075C38.3775 13.995 38.355 13.3425 38.265 11.295C38.175 9.255 37.845 7.8525 37.3725 6.6375C36.9 5.3625 36.2475 4.29 35.175 3.225C34.11 2.16 33.0375 1.5 31.7775 1.0125C30.555 0.54 29.16 0.21 27.12 0.12C25.065 0.0225 24.4125 0 19.2 0Z" fill="white"/>
  <!-- Inner circle ring (centered at ~9.33, 9.33) -->
  <g transform="translate(9.33 9.33)">
    <path d="M9.8625 0C4.4175 0 0 4.4175 0 9.8625C0 15.3075 4.4175 19.725 9.8625 19.725C15.3075 19.725 19.725 15.3075 19.725 9.8625C19.725 4.4175 15.3075 0 9.8625 0ZM9.8625 16.26C6.33 16.26 3.465 13.395 3.465 9.8625C3.465 6.33 6.33 3.465 9.8625 3.465C13.395 3.465 16.26 6.33 16.26 9.8625C16.26 13.395 13.395 16.26 9.8625 16.26Z" fill="white"/>
  </g>
  <!-- Dot (top-right corner, ~27.13, 6.64) -->
  <g transform="translate(27.13 6.64)">
    <path d="M4.605 2.3025C4.605 3.5775 3.57 4.60501 2.3025 4.60501C1.0275 4.60501 0 3.57 0 2.3025C0 1.0275 1.035 0 2.3025 0C3.57 0 4.605 1.035 4.605 2.3025Z" fill="white"/>
  </g>
</svg>
