<svg preserveAspectRatio="none" width="100%" height="100%" overflow="visible" style="display: block;" viewBox="0 0 38.2176 38.4" fill="none" xmlns="http://www.w3.org/2000/svg">
<path id="Vector" d="M0 38.4L2.6992 28.5392C1.0336 25.6528 0.1584 22.3808 0.16 19.0256C0.1648 8.536 8.7008 0 19.1888 0C24.2784 0.0016 29.056 1.984 32.6496 5.5808C36.2416 9.1776 38.2192 13.9584 38.2176 19.0432C38.2128 29.5344 29.6768 38.0704 19.1888 38.0704C16.0048 38.0688 12.8672 37.2704 10.088 35.7536L0 38.4ZM10.5552 32.3088C13.2368 33.9008 15.7968 34.8544 19.1824 34.856C27.8992 34.856 35 27.7616 35.0048 19.04C35.008 10.3008 27.9408 3.216 19.1952 3.2128C10.472 3.2128 3.376 10.3072 3.3728 19.0272C3.3712 22.5872 4.4144 25.2528 6.1664 28.0416L4.568 33.8784L10.5552 32.3088ZM28.7744 23.5664C28.656 23.368 28.3392 23.2496 27.8624 23.0112C27.3872 22.7728 25.0496 21.6224 24.6128 21.464C24.1776 21.3056 23.8608 21.2256 23.5424 21.7024C23.2256 22.1776 22.3136 23.2496 22.0368 23.5664C21.76 23.8832 21.4816 23.9232 21.0064 23.6848C20.5312 23.4464 18.9984 22.9456 17.1824 21.3248C15.7696 20.064 14.8144 18.5072 14.5376 18.0304C14.2608 17.5552 14.5088 17.2976 14.7456 17.0608C14.96 16.848 15.2208 16.5056 15.4592 16.2272C15.7008 15.952 15.7792 15.7536 15.9392 15.4352C16.0976 15.1184 16.0192 14.84 15.8992 14.6016C15.7792 14.3648 14.8288 12.024 14.4336 11.072C14.0464 10.1456 13.6544 10.2704 13.3632 10.256L12.4512 10.24C12.1344 10.24 11.6192 10.3584 11.184 10.8352C10.7488 11.312 9.52 12.4608 9.52 14.8016C9.52 17.1424 11.224 19.4032 11.4608 19.72C11.6992 20.0368 14.8128 24.84 19.5824 26.8992C20.7168 27.3888 21.6032 27.6816 22.2928 27.9008C23.432 28.2624 24.4688 28.2112 25.288 28.0896C26.2016 27.9536 28.1008 26.9392 28.4976 25.8288C28.8944 24.7168 28.8944 23.7648 28.7744 23.5664Z" fill="var(--fill-0, white)"/>
</svg>
